<?xml version="1.0" encoding="utf-8"?>
<svg width="26px" height="19px" viewBox="0 0 26 19" version="1.1" xmlns:xlink="http://www.w3.org/1999/xlink" xmlns="http://www.w3.org/2000/svg">
  <desc>Created with Lunacy</desc>
  <defs>
    <path d="M3.999 0L20.001 0Q20.1975 0 20.393 0.0192563Q20.5885 0.0385126 20.7812 0.0768396Q20.9739 0.115167 21.1618 0.172196Q21.3498 0.229224 21.5313 0.304406Q21.7129 0.379587 21.8861 0.472197Q22.0594 0.564807 22.2227 0.673953Q22.3861 0.783099 22.5379 0.907731Q22.6898 1.03236 22.8287 1.17128Q22.9676 1.3102 23.0923 1.46206Q23.2169 1.61393 23.326 1.77727Q23.4352 1.94062 23.5278 2.11388Q23.6204 2.28715 23.6956 2.46865Q23.7708 2.65015 23.8278 2.83815Q23.8848 3.02615 23.9232 3.21883Q23.9615 3.41152 23.9807 3.60703Q24 3.80254 24 3.999L24 12.8899Q24 13.0863 23.9807 13.2819Q23.9615 13.4774 23.9232 13.6701Q23.8848 13.8627 23.8278 14.0507Q23.7708 14.2387 23.6956 14.4202Q23.6204 14.6017 23.5278 14.775Q23.4352 14.9483 23.326 15.1116Q23.2169 15.275 23.0923 15.4268Q22.9676 15.5787 22.8287 15.7176Q22.6898 15.8565 22.5379 15.9812Q22.3861 16.1058 22.2227 16.2149Q22.0594 16.3241 21.8861 16.4167Q21.7129 16.5093 21.5313 16.5845Q21.3498 16.6597 21.1618 16.7167Q20.9739 16.7737 20.7812 16.812Q20.5885 16.8504 20.393 16.8696Q20.1975 16.8889 20.001 16.8889L3.999 16.8889Q3.80254 16.8889 3.60703 16.8696Q3.41152 16.8504 3.21883 16.812Q3.02615 16.7737 2.83815 16.7167Q2.65015 16.6597 2.46865 16.5845Q2.28715 16.5093 2.11388 16.4167Q1.94062 16.3241 1.77727 16.2149Q1.61393 16.1058 1.46206 15.9812Q1.3102 15.8565 1.17128 15.7176Q1.03236 15.5787 0.907731 15.4268Q0.783099 15.275 0.673953 15.1116Q0.564807 14.9483 0.472197 14.775Q0.379587 14.6017 0.304406 14.4202Q0.229224 14.2387 0.172196 14.0507Q0.115167 13.8627 0.0768396 13.6701Q0.0385126 13.4774 0.0192563 13.2819Q0 13.0863 0 12.8899L0 3.999Q0 3.80254 0.0192563 3.60703Q0.0385126 3.41152 0.0768396 3.21883Q0.115167 3.02615 0.172196 2.83815Q0.229224 2.65015 0.304406 2.46865Q0.379587 2.28715 0.472197 2.11388Q0.564807 1.94062 0.673953 1.77727Q0.783099 1.61393 0.907731 1.46206Q1.03236 1.3102 1.17128 1.17128Q1.3102 1.03236 1.46206 0.907731Q1.61393 0.783099 1.77727 0.673953Q1.94062 0.564807 2.11388 0.472197Q2.28715 0.379587 2.46865 0.304406Q2.65015 0.229224 2.83815 0.172196Q3.02615 0.115167 3.21883 0.0768396Q3.41152 0.0385126 3.60703 0.0192563Q3.80254 0 3.999 0L3.999 0Z" id="path_1" />
    <clipPath id="clip_1">
      <use xlink:href="#path_1" />
    </clipPath>
  </defs>
  <g id="graph-icon" transform="translate(0.75 0.75)">
    <path d="M-1.68176e-12 8L5.2188 2.70552L9.0921 6.16791L14.7929 4.09878e-16" transform="translate(4.444445 4.444445)" id="Path-3" fill="none" stroke="#68B0FF" stroke-width="1.5" stroke-linecap="round" stroke-linejoin="round" />
    <path d="M0 0L4.3141 0L4.3141 4.17712" transform="translate(14.92329 4.444445)" id="Path-4" fill="none" stroke="#68B0FF" stroke-width="1.5" stroke-linecap="round" stroke-linejoin="round" />
    <g id="Rectangle">
      <g clip-path="url(#clip_1)">
        <use xlink:href="#path_1" fill="none" stroke="#68B0FF" stroke-width="3" />
      </g>
    </g>
  </g>
</svg>